<?xml version="1.0" encoding="utf-8"?>
<!-- Generator: Adobe Illustrator 15.0.0, SVG Export Plug-In . SVG Version: 6.00 Build 0)  -->
<!DOCTYPE svg PUBLIC "-//W3C//DTD SVG 1.1//EN" "http://www.w3.org/Graphics/SVG/1.1/DTD/svg11.dtd">
<svg version="1.1" id="Layer_1" xmlns="http://www.w3.org/2000/svg" xmlns:xlink="http://www.w3.org/1999/xlink" x="0px" y="0px"
	 width="78px" height="78px" viewBox="0 0 78 78" enable-background="new 0 0 78 78" xml:space="preserve">
<rect width="78" height="78" fill="#F8F7F4"/>
<polygon fill="#FE9E90" points="0,1.5 1.5,0 0,0 0,0 "/>
<polygon fill="#92CDFF" points="0,21.0 21.0,0 11.0,0 0,11.0 "/>
<polygon fill="#FE9E90" points="0,40.5 40.5,0 30.5,0 0,30.5 "/>
<polygon fill="#92CDFF" points="0,60.0 60.0,0 50.0,0 0,50.0 "/>
<polygon fill="#FE9E90" points="0,79.5 79.5,0 69.5,0 0,69.5 "/>
<polygon fill="#92CDFF" points="0,99.0 99.0,0 89.0,0 0,89.0 "/>
<polygon fill="#FE9E90" points="0,118.5 118.5,0 108.5,0 0,108.5 "/>
<polygon fill="#92CDFF" points="0,138.0 138.0,0 128.0,0 0,128.0 "/>
<polygon fill="#FE9E90" points="0,157.5 157.5,0 147.5,0 0,147.5 "/>
</svg>
